<svg width="44" height="30" viewBox="0 0 44 30" fill="none" xmlns="http://www.w3.org/2000/svg">
    <g clip-path="url(#clip0_612_82)">
        <path
            d="M33.584 7.45639C34.4928 5.55331 35.9557 3.98405 37.8513 2.92644C39.3515 2.0841 40.5592 2.967 41.5272 4.10261C42.2399 4.96679 42.9309 5.86841 43.5223 6.78875C43.958 7.45639 44.0358 8.25818 43.2453 8.76983C42.4951 9.25964 41.8228 9.00381 41.3093 8.29874C41.2501 8.22074 41.1723 8.16147 41.1319 8.08347C39.7499 5.20078 38.2279 5.16022 36.488 7.79021C36.2514 8.16147 35.8561 8.55456 35.4608 8.69183C34.415 9.08493 33.8423 8.55456 33.584 7.45639Z"
            fill="#6332FF" />
        <path
            d="M14.1186 2.25558C15.7091 0.446096 18.1556 -0.361932 20.5086 0.149715C21.2899 0.355622 21.8813 0.655123 22.2797 1.0451C22.6812 1.43507 22.9613 1.86873 23.1263 2.34294C23.2912 2.87954 23.3068 3.54406 23.173 4.33649C23.0391 5.12892 22.8119 5.9931 22.4944 6.93216C22.177 7.8681 21.8066 8.86332 21.3864 9.91157C20.9662 10.9629 20.5584 12.0237 20.1694 13.0938C19.7803 14.1639 19.4411 15.2215 19.1516 16.2604C18.8621 17.2993 18.694 18.282 18.6442 19.2086C18.5913 20.1352 18.7003 20.9837 18.9679 21.7575C19.2356 22.528 19.7274 23.1738 20.4464 23.6886C20.4246 24.1004 20.2161 24.481 19.8146 24.8305C19.413 25.1799 18.9368 25.3764 18.3828 25.417C17.642 25.4575 16.9666 25.3639 16.3503 25.1393C15.734 24.9116 15.1987 24.5778 14.7474 24.1347C14.296 23.6917 13.9506 23.1614 13.714 22.5436C13.4775 21.9259 13.3685 21.2583 13.3903 20.5345C13.409 20.2475 13.4401 19.9386 13.4837 19.6079C13.5241 19.2803 13.5771 18.9403 13.6362 18.5909V18.5877C13.2658 18.1759 12.7647 17.9419 12.1266 17.8795C11.4917 17.8171 10.782 17.8078 10.0039 17.8483H10.0008C9.21952 18.959 8.51609 20.0447 7.89047 21.1054C7.26485 22.1661 6.77618 23.1707 6.42758 24.116C6.07898 25.0644 5.89845 25.938 5.88911 26.7429C5.87978 27.5447 6.1101 28.2342 6.58321 28.8113C6.15057 29.3479 5.67435 29.6973 5.15144 29.8627C4.62854 30.028 4.10252 30.0436 3.57962 29.9095C3.05671 29.7753 2.55249 29.5226 2.07004 29.1514C1.5876 28.7801 1.17675 28.3278 0.837483 27.7911C0.498218 27.2545 0.258554 26.668 0.112265 26.0316C-0.0309112 25.392 -0.0309112 24.7337 0.112265 24.0536C0.295904 23.1894 0.681857 22.2161 1.26701 21.1335C1.85217 20.054 2.56494 18.8841 3.40843 17.63C2.87308 17.3835 2.50891 17.059 2.31593 16.6566C2.11984 16.2541 2.06382 15.8579 2.14786 15.4679C2.22878 15.078 2.41865 14.7535 2.71745 14.4946C3.01625 14.2387 3.38042 14.1295 3.80995 14.1701C4.15855 14.5601 4.65344 14.819 5.2884 14.9407C6.31553 13.5212 7.36756 12.083 8.44761 10.6322C9.52454 9.18154 10.5237 7.78075 11.4356 6.43299L14.1186 2.25558ZM14.4672 15.3463C14.7754 14.3573 15.1146 13.3434 15.485 12.3045L16.6398 9.05363C15.9737 9.96461 15.2516 10.9099 14.4828 11.8895C13.7545 12.8161 13.0199 13.7739 12.2822 14.7597V14.7629C12.6931 14.8034 13.0822 14.8658 13.4526 14.9469C13.8198 15.028 14.1591 15.1622 14.4672 15.3463Z"
            fill="#6332FF" />
        <path
            d="M30.3504 18.0169C30.1854 18.5536 30.1449 19.0215 30.2259 19.4209C30.3068 19.8233 30.4531 20.0479 30.6585 20.101C30.8639 20.154 31.1098 19.9824 31.3993 19.5924C31.4024 19.5893 31.4055 19.5831 31.4086 19.58C31.6327 19.2711 32.1183 19.4614 32.0498 19.8358C32.0156 20.0323 31.972 20.2289 31.9253 20.4254C31.6794 21.4331 31.3339 22.3254 30.8919 23.096C30.45 23.8666 29.927 24.4656 29.3201 24.8867C28.7132 25.3079 28.0938 25.4171 27.4557 25.2112C26.2418 24.8836 25.4419 24.3252 25.0528 23.5421C24.9968 23.4423 24.9501 23.3362 24.9128 23.2208C24.8287 22.9618 24.4895 22.8994 24.3152 23.1116C24.0693 23.4111 23.8109 23.7043 23.5433 23.9914C23.0919 24.4749 22.65 24.8368 22.2173 25.0708C21.7847 25.3079 21.3894 25.3578 21.0314 25.2268C20.6953 25.102 20.4245 24.7183 20.2222 24.0725C20.1973 23.9914 20.1413 23.9196 20.0697 23.8759C19.6557 23.617 19.3569 23.2894 19.167 22.8932C19.0021 22.5656 18.9367 22.1507 18.9678 21.6578C18.999 21.1648 19.0923 20.622 19.2449 20.0355C19.3974 19.4489 19.5935 18.8406 19.83 18.2135C20.0666 17.5864 20.2969 16.9843 20.5241 16.4071C20.935 15.2965 21.296 14.189 21.601 13.0877C21.9092 11.9864 22.0026 10.9724 21.8781 10.0459C21.7971 9.38758 21.9403 8.97577 22.3107 8.81042C22.6811 8.64507 23.1106 8.62635 23.6055 8.74802C24.2405 8.91337 24.7509 9.13799 25.1306 9.42814C25.5104 9.71516 25.803 10.0365 26.0084 10.3859C26.192 10.7353 26.248 11.2158 26.1765 11.821C26.1049 12.4294 25.9648 13.0814 25.7594 13.7834C25.554 14.4822 25.3112 15.1935 25.0342 15.9142C24.7571 16.6349 24.505 17.2994 24.2778 17.9078C24.0506 18.5161 23.8887 19.0309 23.786 19.4521C23.6833 19.8732 23.6927 20.1259 23.8172 20.207C23.9199 20.2694 24.0848 20.1977 24.3089 19.9918C24.5362 19.7859 24.7914 19.4926 25.0808 19.112C25.3672 18.7314 25.666 18.279 25.9741 17.7518C26.2823 17.2276 26.5593 16.6661 26.8052 16.0671C27.0324 15.4899 27.2409 14.919 27.437 14.3512C27.6331 13.7865 27.7763 13.2561 27.8697 12.7601C27.963 12.264 27.9973 11.8117 27.9786 11.3999C27.9599 11.0504 27.8852 10.7509 27.7483 10.5045C27.7016 10.4234 27.6767 10.3266 27.7047 10.2362C27.795 9.93978 27.9973 9.66212 28.3179 9.4063C28.6883 9.1068 29.1022 8.89777 29.566 8.77298C30.0298 8.64819 30.4966 8.63883 30.9666 8.74178C31.4397 8.84473 31.8195 9.1224 32.1058 9.57477C32.3735 10.0271 32.4918 10.5637 32.4606 11.1815C32.4295 11.7992 32.305 12.4731 32.0903 13.2062C31.8755 13.9394 31.6078 14.7131 31.2903 15.5367C30.9729 16.3666 30.6585 17.1933 30.3504 18.0169Z"
            fill="#6332FF" />
        <path
            d="M42.9778 12.7505C42.9778 13.2153 42.8596 13.6864 42.623 14.17C42.3865 14.6535 42.0939 15.081 41.7453 15.4522C41.1103 16.1105 40.3073 16.7033 39.3424 17.2274C38.5083 17.6829 37.6648 18.0916 36.815 18.4628C36.566 18.572 36.4602 18.8684 36.5878 19.1086C36.7621 19.4393 37.0391 19.7076 37.4158 19.9135C37.9604 20.213 38.5518 20.3347 39.1868 20.2848C39.8217 20.2349 40.4287 19.9853 41.0045 19.5423L41.0232 19.5298C41.3967 19.2396 41.9258 19.6234 41.7515 20.0633C41.7484 20.0695 41.7453 20.0758 41.7453 20.082C41.3967 20.968 40.9018 21.7792 40.2668 22.5217C39.6319 23.2642 38.9004 23.8913 38.0787 24.406C37.257 24.9208 36.4135 25.2203 35.5514 25.3014C34.4433 25.4262 33.5375 25.2796 32.8403 24.8678C32.14 24.456 31.6233 23.8694 31.2841 23.1082C30.9448 22.347 30.7767 21.4672 30.7767 20.4689C30.7767 19.4705 30.9168 18.441 31.1938 17.3802C31.4708 16.3195 31.8661 15.2869 32.3797 14.276C32.8933 13.2684 33.5095 12.373 34.2285 11.5899C34.9475 10.8068 35.7474 10.1891 36.6314 9.73674C37.5154 9.28437 38.3557 8.96303 39.8684 9.28749C41.5149 9.69306 43.0837 10.7351 42.9778 12.7505ZM40.4816 11.3746C40.1735 11.3341 39.8342 11.4776 39.4638 11.8083C39.0934 12.139 38.7292 12.5758 38.3682 13.1217C38.0102 13.6677 37.671 14.2792 37.3504 14.9593C37.0329 15.6394 36.7808 16.307 36.5972 16.9684C37.2757 16.6814 37.9262 16.3663 38.5549 16.0263C39.1806 15.6862 39.7159 15.3149 40.1579 14.9156C40.5999 14.5132 40.9236 14.0826 41.129 13.6178C41.3344 13.156 41.3656 12.6569 41.2224 12.1203C41.0574 11.6429 40.8115 11.3965 40.4816 11.3746Z"
            fill="#6332FF" />
    </g>
    <defs>
        <clipPath id="clip0_612_82">
            <rect width="43.8462" height="30" fill="white" />
        </clipPath>
    </defs>
</svg>
    