<svg width="44" height="30" viewBox="0 0 44 30" fill="none" xmlns="http://www.w3.org/2000/svg">
    <mask id="path-1-inside-1_614_223" fill="white">
    <path fill-rule="evenodd" clip-rule="evenodd" d="M6.14657 0.124328H27.716H27.7161C31.0956 0.124328 33.8352 2.86396 33.8352 6.24347C33.8352 9.62297 31.0956 12.3626 27.7161 12.3626H27.716H6.11908V12.3625C2.7396 12.3625 0 9.62289 0 6.24341C0 2.8639 2.73963 0.124268 6.11914 0.124268C6.12829 0.124268 6.13743 0.124288 6.14657 0.124328Z"/>
    </mask>
    <path d="M6.14657 0.124328L6.13924 1.79579H6.14657V0.124328ZM6.11908 12.3626H4.44762V14.0341H6.11908V12.3626ZM6.11908 12.3625H7.79054V10.6911L6.1191 10.6911L6.11908 12.3625ZM27.716 -1.54713H6.14657V1.79579H27.716V-1.54713ZM27.7161 -1.54713H27.716V1.79579H27.7161V-1.54713ZM35.5067 6.24347C35.5067 1.94084 32.0187 -1.54713 27.7161 -1.54713V1.79579C30.1725 1.79579 32.1638 3.78708 32.1638 6.24347H35.5067ZM27.7161 14.0341C32.0187 14.0341 35.5067 10.5461 35.5067 6.24347H32.1638C32.1638 8.69985 30.1725 10.6911 27.7161 10.6911V14.0341ZM27.716 14.0341H27.7161V10.6911H27.716V14.0341ZM6.11908 14.0341H27.716V10.6911H6.11908V14.0341ZM4.44762 12.3625V12.3626H7.79054V12.3625H4.44762ZM6.1191 10.6911C3.66273 10.6911 1.67146 8.69977 1.67146 6.24341H-1.67146C-1.67146 10.546 1.81647 14.034 6.11906 14.034L6.1191 10.6911ZM1.67146 6.24341C1.67146 3.78702 3.66275 1.79573 6.11914 1.79573V-1.54719C1.81651 -1.54719 -1.67146 1.94078 -1.67146 6.24341H1.67146ZM6.11914 1.79573C6.12584 1.79573 6.13254 1.79574 6.13924 1.79577L6.15391 -1.54712C6.14232 -1.54717 6.13073 -1.54719 6.11914 -1.54719V1.79573Z" fill="#6332FF" mask="url(#path-1-inside-1_614_223)"/>
    <mask id="path-3-inside-2_614_223" fill="white">
    <path fill-rule="evenodd" clip-rule="evenodd" d="M31.2689 1.09076C34.0463 3.01615 34.7369 6.82851 32.8116 9.60591L32.7885 9.63893L20.5282 27.3246C20.5213 27.3347 20.5143 27.3449 20.5073 27.355C18.5819 30.1324 14.7695 30.8231 11.9921 28.8977C9.21473 26.9723 8.52403 23.16 10.4494 20.3826L10.4493 20.3826L22.7536 2.63341L22.7537 2.63347C24.6791 -0.143934 28.4915 -0.834626 31.2689 1.09076Z"/>
    </mask>
    <path d="M32.8116 9.60591L34.1821 10.5626L34.1852 10.5582L32.8116 9.60591ZM31.2689 1.09076L30.3166 2.46443L30.3166 2.46443L31.2689 1.09076ZM32.7885 9.63893L31.4179 8.68222L31.4148 8.68666L32.7885 9.63893ZM20.5282 27.3246L19.1545 26.3723L19.1489 26.3805L20.5282 27.3246ZM20.5073 27.355L21.8809 28.3073L21.881 28.3072L20.5073 27.355ZM11.9921 28.8977L12.9444 27.524L11.9921 28.8977ZM10.4494 20.3826L11.823 21.3349L12.7708 19.9677L11.4081 19.0135L10.4494 20.3826ZM10.4493 20.3826L9.0756 19.4303L8.12783 20.7975L9.4905 21.7517L10.4493 20.3826ZM22.7536 2.63341L23.4395 1.10917L22.1719 0.538738L21.3799 1.68114L22.7536 2.63341ZM22.7537 2.63347L22.0678 4.15771L23.3354 4.72814L24.1274 3.58574L22.7537 2.63347ZM34.1852 10.5582C36.6365 7.02213 35.7572 2.16841 32.2211 -0.282905L30.3166 2.46443C32.3353 3.86389 32.8374 6.63489 31.4379 8.65364L34.1852 10.5582ZM34.1591 10.5956L34.1821 10.5626L31.441 8.6492L31.4179 8.68222L34.1591 10.5956ZM21.9019 28.2769L34.1622 10.5912L31.4148 8.68666L19.1545 26.3723L21.9019 28.2769ZM19.1489 26.3805C19.1439 26.3878 19.1388 26.3953 19.1335 26.4028L21.881 28.3072C21.8898 28.2945 21.8986 28.2817 21.9075 28.2687L19.1489 26.3805ZM19.1336 26.4027C17.7341 28.4215 14.9631 28.9235 12.9444 27.524L11.0398 30.2714C14.5759 32.7227 19.4296 31.8433 21.8809 28.3073L19.1336 26.4027ZM12.9444 27.524C10.9257 26.1246 10.4236 23.3536 11.823 21.3349L9.07568 19.4304C6.62444 22.9664 7.50381 27.8201 11.0398 30.2714L12.9444 27.524ZM9.4905 21.7517L9.49059 21.7518L11.4081 19.0135L11.408 19.0134L9.4905 21.7517ZM21.3799 1.68114L9.0756 19.4303L11.8229 21.3348L24.1273 3.58568L21.3799 1.68114ZM23.4396 1.10922L23.4395 1.10917L22.0677 4.15765L22.0678 4.15771L23.4396 1.10922ZM32.2211 -0.282905C28.6851 -2.73422 23.8314 -1.85486 21.38 1.68119L24.1274 3.58574C25.5268 1.56699 28.2978 1.06497 30.3166 2.46443L32.2211 -0.282905Z" fill="#6332FF" mask="url(#path-3-inside-2_614_223)"/>
    <mask id="path-5-inside-3_614_223" fill="white">
    <path fill-rule="evenodd" clip-rule="evenodd" d="M15.4777 17.7617H37.0746H37.0747C40.4541 17.7617 43.1938 20.5014 43.1938 23.8809C43.1938 27.2603 40.4541 30 37.0747 30H37.0746H15.517C15.5039 30.0001 15.4909 30.0001 15.4778 30.0001C12.0983 30.0001 9.35864 27.2605 9.35864 23.881C9.35864 20.5015 12.0982 17.7619 15.4777 17.7618V17.7617Z"/>
    </mask>
    <path d="M15.4777 17.7617V16.0903H13.8062V17.7617H15.4777ZM37.0747 17.7617L37.0747 16.0903H37.0747V17.7617ZM37.0747 30V31.6715H37.0747L37.0747 30ZM15.517 30V28.3285L15.5065 28.3286L15.517 30ZM15.4777 17.7618L15.4777 19.4333L17.1492 19.4333V17.7618H15.4777ZM37.0746 16.0903H15.4777V19.4332H37.0746V16.0903ZM37.0747 16.0903H37.0746V19.4332H37.0747V16.0903ZM44.8652 23.8809C44.8652 19.5782 41.3773 16.0903 37.0747 16.0903L37.0747 19.4332C39.531 19.4332 41.5223 21.4245 41.5223 23.8809H44.8652ZM37.0747 31.6715C41.3773 31.6714 44.8652 28.1835 44.8652 23.8809H41.5223C41.5223 26.3372 39.531 28.3285 37.0747 28.3285L37.0747 31.6715ZM37.0746 31.6715H37.0747V28.3285H37.0746V31.6715ZM15.517 31.6715H37.0746V28.3285H15.517V31.6715ZM15.5065 28.3286C15.4969 28.3286 15.4874 28.3287 15.4778 28.3287V31.6716C15.4944 31.6716 15.5109 31.6715 15.5275 31.6714L15.5065 28.3286ZM15.4778 28.3287C13.0214 28.3287 11.0301 26.3374 11.0301 23.881H7.68718C7.68718 28.1836 11.1752 31.6716 15.4778 31.6716V28.3287ZM11.0301 23.881C11.0301 21.4246 13.0214 19.4333 15.4777 19.4333L15.4777 16.0904C11.1751 16.0904 7.68718 19.5784 7.68718 23.881H11.0301ZM13.8062 17.7617V17.7618H17.1492V17.7617H13.8062Z" fill="#6332FF" mask="url(#path-5-inside-3_614_223)"/>
    </svg>
    