<svg width="42" height="30" viewBox="0 0 42 30" fill="none" xmlns="http://www.w3.org/2000/svg">
    <path
        d="M38.9332 15.2055C39.6186 14.3835 40.167 13.4246 40.5782 12.4657C40.9895 11.5068 41.1266 10.4109 41.1266 9.17806C41.1266 7.94518 40.8524 6.71231 40.4411 5.61642C40.0299 4.52052 39.3444 3.56162 38.5219 2.7397C37.6994 1.91778 36.7398 1.23285 35.643 0.821894C34.5463 0.410935 33.4496 0.136963 32.0787 0.136963H11.2413V6.16436H17.2732H23.3051H32.2158C33.0384 6.16436 33.7238 6.43833 34.4092 6.98628C34.9576 7.53422 35.2318 8.21915 35.2318 9.17806C35.2318 9.99998 34.9576 10.6849 34.4092 11.2329C33.8609 11.7808 33.1754 12.0548 32.2158 12.0548H23.3051H17.2732V18.0822H23.3051H32.2158C33.0384 18.0822 33.7238 18.3561 34.4092 18.9041C34.9576 19.452 35.2318 20.137 35.2318 21.0959C35.2318 21.9178 34.9576 22.6027 34.4092 23.1507C33.8609 23.6986 33.1754 23.9726 32.2158 23.9726H23.3051H17.2732H11.2413V30H32.2158C33.4496 30 34.6834 29.726 35.7801 29.315C36.8768 28.9041 37.8365 28.2192 38.659 27.3972C39.4815 26.5753 40.167 25.6164 40.5782 24.5205C40.9895 23.4246 41.2637 22.3287 41.2637 20.9589C41.2637 19.863 41.1266 18.7671 40.7153 17.6712C40.167 16.8493 39.6186 16.0274 38.9332 15.2055Z"
        fill="#EDA900" />
    <path
        d="M21.3858 21.5068C20.5633 22.3288 19.6037 23.0137 18.507 23.4247C17.4102 23.8356 16.3135 24.1096 14.9427 24.1096H12.0638V6.16438H15.0797C16.3135 6.16438 17.5473 6.43836 18.644 6.84931C19.7408 7.26027 20.7004 7.94521 21.5229 8.76712C22.3454 9.58904 22.8938 10.5479 23.4421 11.5068H29.6111C29.474 10.6849 29.1999 10 28.7886 9.17808C27.9661 7.39726 26.8694 5.75342 25.6356 4.38356C24.2647 3.0137 22.7567 1.91781 20.8375 1.23288C19.0553 0.410959 17.1361 0 14.9427 0H0V6.0274H6.0319V23.9726H0V30H14.9427C16.999 30 18.9182 29.589 20.8375 28.7671C22.6196 27.9452 24.2647 26.8493 25.6356 25.6164C27.0065 24.2466 28.1032 22.7397 28.7886 20.8219C29.0628 20.137 29.337 19.3151 29.6111 18.4932H23.3051C22.7567 19.726 22.2084 20.6849 21.3858 21.5068Z"
        fill="#989898" />
</svg>
    