<svg width="48" height="30" viewBox="0 0 48 30" fill="none" xmlns="http://www.w3.org/2000/svg">
    <path d="M47.1593 14.9781C47.1593 13.5183 46.7633 12.5109 45.9711 11.9562L32.9319 0.832106C32.282 0.277393 31.7539 1.90735e-05 31.3477 1.90735e-05C31.0431 1.90735e-05 30.7486 0.17518 30.4642 0.525545C30.1799 0.87591 29.8651 1.45985 29.5198 2.27737C29.1542 3.12411 28.9714 3.83941 28.9714 4.42336C28.9714 5.03648 29.1948 5.60585 29.6417 6.13138C29.8041 6.33577 30.0783 6.59853 30.4642 6.91971L39.9085 14.9781C39.6648 15.2117 36.5167 17.8978 30.4642 23.0365C29.8143 23.6496 29.3979 24.1898 29.2151 24.657C29.073 24.9781 29.0019 25.3577 29.0019 25.7956C29.0019 26.2628 29.1948 26.9489 29.5807 27.854C30.1697 29.2847 30.7384 30 31.2868 30C31.5915 30 31.8555 29.927 32.0789 29.781C32.282 29.6934 32.9015 29.1971 33.9373 28.292C34.9731 27.3869 38.9742 23.9708 45.9407 18.0438C46.7531 17.4598 47.1593 16.438 47.1593 14.9781Z" fill="url(#paint0_linear_614_151)"/>
    <path d="M45.9561 11.9562C46.7482 12.5109 47.1443 13.5183 47.1443 14.9781C47.1443 16.438 46.7381 17.4598 45.9257 18.0438C38.9592 23.9708 34.9581 27.3869 33.9223 28.292C32.8864 29.1971 32.267 29.6934 32.0639 29.781C31.8405 29.927 31.5764 30 31.2718 30C30.7234 30 30.1547 29.2847 29.5657 27.854C29.1798 26.9489 28.9869 26.2628 28.9869 25.7956C28.9869 25.3577 29.058 24.9781 29.2001 24.657C29.3829 24.1898 29.7993 23.6496 30.4492 23.0365C36.5017 17.8978 39.6498 15.2117 39.8935 14.9781C43.5876 11.8148 43.8697 10.3187 43.4907 9.85792L43.3719 9.75679C43.4157 9.78212 43.456 9.81567 43.4907 9.85792L45.9561 11.9562Z" fill="#00FFB8"/>
    <path d="M45.9561 11.9562C46.7482 12.5109 47.1443 13.5183 47.1443 14.9781C47.1443 16.438 46.7381 17.4598 45.9257 18.0438C38.9592 23.9708 34.9581 27.3869 33.9223 28.292C32.8864 29.1971 32.267 29.6934 32.0639 29.781C31.8405 29.927 31.5764 30 31.2718 30C30.7234 30 30.1547 29.2847 29.5657 27.854C29.1798 26.9489 28.9869 26.2628 28.9869 25.7956C28.9869 25.3577 29.058 24.9781 29.2001 24.657C29.3829 24.1898 29.7993 23.6496 30.4492 23.0365C36.5017 17.8978 39.6498 15.2117 39.8935 14.9781C43.5876 11.8148 43.8697 10.3187 43.4907 9.85792L43.3719 9.75679C43.4157 9.78212 43.456 9.81567 43.4907 9.85792L45.9561 11.9562Z" fill="url(#paint1_linear_614_151)"/>
    <path d="M0 14.9781C0 13.5183 0.396051 12.5109 1.18815 11.9562L14.2274 0.832106C14.8773 0.277393 15.4054 1.90735e-05 15.8116 1.90735e-05C16.1162 1.90735e-05 16.4107 0.17518 16.6951 0.525545C16.9794 0.87591 17.2942 1.45985 17.6395 2.27737C18.0051 3.12411 18.1879 3.83941 18.1879 4.42336C18.1879 5.03648 17.9645 5.60585 17.5176 6.13138C17.3552 6.33577 17.081 6.59853 16.6951 6.91971L7.25077 14.9781C7.49449 15.2117 10.6426 17.8978 16.6951 23.0365C17.345 23.6496 17.7614 24.1898 17.9442 24.657C18.0863 24.9781 18.1574 25.3577 18.1574 25.7956C18.1574 26.2628 17.9645 26.9489 17.5786 27.854C16.9896 29.2847 16.4209 30 15.8725 30C15.5678 30 15.3038 29.927 15.0804 29.781C14.8773 29.6934 14.2579 29.1971 13.222 28.292C12.1862 27.3869 8.18506 23.9708 1.21862 18.0438C0.406205 17.4598 0 16.438 0 14.9781Z" fill="url(#paint2_linear_614_151)"/>
    <path d="M0 14.9781C0 13.5183 0.396051 12.5109 1.18815 11.9562L14.2274 0.832106C14.8773 0.277393 15.4054 1.90735e-05 15.8116 1.90735e-05C16.1162 1.90735e-05 16.4107 0.17518 16.6951 0.525545C16.9794 0.87591 17.2942 1.45985 17.6395 2.27737C18.0051 3.12411 18.1879 3.83941 18.1879 4.42336C18.1879 5.03648 17.9645 5.60585 17.5176 6.13138C17.3552 6.33577 17.081 6.59853 16.6951 6.91971L7.25077 14.9781C7.49449 15.2117 10.6426 17.8978 16.6951 23.0365C17.345 23.6496 17.7614 24.1898 17.9442 24.657C18.0863 24.9781 18.1574 25.3577 18.1574 25.7956C18.1574 26.2628 17.9645 26.9489 17.5786 27.854C16.9896 29.2847 16.4209 30 15.8725 30C15.5678 30 15.3038 29.927 15.0804 29.781C14.8773 29.6934 14.2579 29.1971 13.222 28.292C12.1862 27.3869 8.18506 23.9708 1.21862 18.0438C0.406205 17.4598 0 16.438 0 14.9781Z" fill="url(#paint3_linear_614_151)"/>
    <path d="M1.20354 11.9562C0.411432 12.5109 0.0153809 13.5183 0.0153809 14.9781C0.0153809 16.438 0.421585 17.4598 1.234 18.0438C8.20044 23.9708 12.2016 27.3869 13.2374 28.292C14.2732 29.1971 14.8927 29.6934 15.0958 29.781C15.3192 29.927 15.5832 30 15.8879 30C16.4363 30 17.005 29.2847 17.594 27.854C17.9799 26.9489 18.1728 26.2628 18.1728 25.7956C18.1728 25.3577 18.1017 24.9781 17.9596 24.657C17.7767 24.1898 17.3604 23.6496 16.7105 23.0365C10.658 17.8978 7.50987 15.2117 7.26615 14.9781C3.57211 11.8148 3.28995 10.3187 3.66894 9.85792L3.78776 9.75679C3.74401 9.78212 3.70369 9.81567 3.66894 9.85792L1.20354 11.9562Z" fill="#00FFB8"/>
    <path d="M1.20354 11.9562C0.411432 12.5109 0.0153809 13.5183 0.0153809 14.9781C0.0153809 16.438 0.421585 17.4598 1.234 18.0438C8.20044 23.9708 12.2016 27.3869 13.2374 28.292C14.2732 29.1971 14.8927 29.6934 15.0958 29.781C15.3192 29.927 15.5832 30 15.8879 30C16.4363 30 17.005 29.2847 17.594 27.854C17.9799 26.9489 18.1728 26.2628 18.1728 25.7956C18.1728 25.3577 18.1017 24.9781 17.9596 24.657C17.7767 24.1898 17.3604 23.6496 16.7105 23.0365C10.658 17.8978 7.50987 15.2117 7.26615 14.9781C3.57211 11.8148 3.28995 10.3187 3.66894 9.85792L3.78776 9.75679C3.74401 9.78212 3.70369 9.81567 3.66894 9.85792L1.20354 11.9562Z" fill="#00FFB8"/>
    <defs>
    <linearGradient id="paint0_linear_614_151" x1="28.9714" y1="1.10843" x2="50.6474" y2="20.1085" gradientUnits="userSpaceOnUse">
    <stop stop-color="#00FFB8"/>
    <stop offset="1" stop-color="#09BC8A"/>
    </linearGradient>
    <linearGradient id="paint1_linear_614_151" x1="38.0656" y1="30" x2="47.1443" y2="11.7107" gradientUnits="userSpaceOnUse">
    <stop stop-color="#00FFB8"/>
    <stop offset="1" stop-color="#00FFB8" stop-opacity="0"/>
    </linearGradient>
    <linearGradient id="paint2_linear_614_151" x1="18.1879" y1="1.10843" x2="-3.48806" y2="20.1085" gradientUnits="userSpaceOnUse">
    <stop stop-color="#00FFB8"/>
    <stop offset="1" stop-color="#09BC8A"/>
    </linearGradient>
    <linearGradient id="paint3_linear_614_151" x1="18.1879" y1="1.10843" x2="-3.48806" y2="20.1085" gradientUnits="userSpaceOnUse">
    <stop stop-color="#00FFB8"/>
    <stop offset="1" stop-color="#09BC8A"/>
    </linearGradient>
    </defs>
    </svg>
    