<svg width="45" height="30" viewBox="0 0 45 30" fill="none" xmlns="http://www.w3.org/2000/svg">
    <g clip-path="url(#clip0_614_242)">
    <path d="M32.8396 21.98H32.547C31.9351 21.98 31.443 22.4641 31.443 23.0659C31.443 23.6677 31.9351 24.1518 32.547 24.1518H32.8396C33.4514 24.1518 33.9435 23.6677 33.9435 23.0659C33.9435 22.4641 33.4514 21.98 32.8396 21.98Z" fill="url(#paint0_linear_614_242)"/>
    <path d="M43.2142 4.39599H35.7791C35.1672 4.39599 34.6751 3.91191 34.6751 3.31007V3.28391C34.6751 2.68208 35.1672 2.19799 35.7791 2.19799H38.5722C39.1841 2.19799 39.6762 1.71391 39.6762 1.11208V1.08591C39.6762 0.484082 39.1841 0 38.5722 0H18.7408C18.129 0 17.6368 0.484082 17.6368 1.08591V5.50807H10.7204C9.05783 5.50807 7.47503 6.20148 6.35777 7.40515L1.636 12.5076C0.585234 13.6459 0 15.1243 0 16.6681V21.4828C0 23.7985 1.91531 25.6825 4.26955 25.6825H7.24892C7.35533 25.6825 7.47503 25.6694 7.58144 25.6433C7.56814 25.761 7.56814 25.8788 7.56814 25.9965C7.56814 27.0563 7.99377 28.0244 8.68541 28.744V28.901H8.84501C9.57656 29.5813 10.5741 30 11.6648 30C12.7554 30 13.7397 29.5813 14.4845 28.901H14.6442V28.744C15.3358 28.0244 15.7614 27.0563 15.7614 25.9965C15.7614 24.9368 15.3358 23.9686 14.6442 23.249V23.092H14.4845C14.4047 23.0135 14.3116 22.9481 14.2318 22.8696H17.6634V27.4749C17.6634 28.0768 18.1556 28.5608 18.7674 28.5608H32.8529C33.4647 28.5608 33.9569 28.0768 33.9569 27.4749V27.4618C33.9569 26.86 33.4647 26.3759 32.8529 26.3759H23.8749C23.2631 26.3759 22.7709 25.8918 22.7709 25.29V25.2508C22.7709 24.6489 23.2631 24.1648 23.8749 24.1648H28.1045C28.7164 24.1648 29.2085 23.6808 29.2085 23.0789C29.2085 22.4771 28.7164 21.993 28.1045 21.993H26.1626C25.5508 21.993 25.0587 21.5089 25.0587 20.9071V20.8809C25.0587 20.2791 25.5508 19.795 26.1626 19.795H32.8529C33.4647 19.795 33.9569 19.3109 33.9569 18.7091C33.9569 18.1073 33.4647 17.6232 32.8529 17.6232H28.9159C28.304 17.6232 27.8119 17.1391 27.8119 16.5373V16.485C27.8119 15.8831 28.304 15.399 28.9159 15.399H30.8578C31.4696 15.399 31.9618 14.915 31.9618 14.3131C31.9618 13.7113 31.4696 13.2272 30.8578 13.2272H23.1167C22.5049 13.2272 22.0128 12.7431 22.0128 12.1413V12.1151C22.0128 11.5133 22.5049 11.0292 23.1167 11.0292H29.2218C29.8336 11.0292 30.3258 10.5451 30.3258 9.94331V9.91714C30.3258 9.31531 29.8336 8.83123 29.2218 8.83123H26.1626C25.5508 8.83123 25.0587 8.34714 25.0587 7.74531V7.71915C25.0587 7.11731 25.5508 6.63323 26.1626 6.63323H43.2275C43.8393 6.63323 44.3315 6.14915 44.3315 5.54732V5.52115C44.3182 4.88007 43.826 4.39599 43.2142 4.39599Z" fill="url(#paint1_linear_614_242)"/>
    <path d="M43.0547 23.079H42.895C42.1635 22.3986 41.1659 21.98 40.0753 21.98C38.9846 21.98 38.0004 22.3986 37.2555 23.079H37.1092V23.236C36.4176 23.9556 35.9919 24.9237 35.9919 25.9835C35.9919 27.0432 36.4176 28.0114 37.1092 28.731V28.888H37.2688C38.0004 29.5683 38.9979 29.987 40.0886 29.987C41.1792 29.987 42.1635 29.5683 42.9083 28.888H43.068V28.731C43.7596 28.0114 44.1852 27.0432 44.1852 25.9835C44.1852 24.9237 43.7596 23.9556 43.068 23.236V23.079H43.0547Z" fill="url(#paint2_linear_614_242)"/>
    </g>
    <defs>
    <linearGradient id="paint0_linear_614_242" x1="32.6933" y1="21.98" x2="32.6933" y2="24.1518" gradientUnits="userSpaceOnUse">
    <stop stop-color="#06794F"/>
    <stop offset="1" stop-color="#0FA28B"/>
    </linearGradient>
    <linearGradient id="paint1_linear_614_242" x1="22.1657" y1="0" x2="22.1657" y2="30" gradientUnits="userSpaceOnUse">
    <stop stop-color="#06794F"/>
    <stop offset="1" stop-color="#0FA28B"/>
    </linearGradient>
    <linearGradient id="paint2_linear_614_242" x1="40.0886" y1="21.98" x2="40.0886" y2="29.987" gradientUnits="userSpaceOnUse">
    <stop stop-color="#06794F"/>
    <stop offset="1" stop-color="#0FA28B"/>
    </linearGradient>
    <clipPath id="clip0_614_242">
    <rect width="44.3182" height="30" fill="white"/>
    </clipPath>
    </defs>
    </svg>
    