<svg width="448" height="362" viewBox="0 0 448 362" fill="none" xmlns="http://www.w3.org/2000/svg">
    <path fill-rule="evenodd" clip-rule="evenodd"
        d="M93.893 15.6359C95.8678 1.12121 113.429 -5.0825 124.083 4.97116L193.412 70.395C196.387 73.2024 198.317 76.9392 198.884 80.9899L212.296 176.755L291.5 255.958L389.458 158H278.772L263.973 145.022C255.647 137.721 260.811 124 271.885 124H423.5C436.755 124 447.5 134.745 447.5 148V344C447.5 353.941 439.441 362 429.5 362H142.5C132.559 362 124.5 353.941 124.5 344V283.653C124.5 272.429 138.536 267.348 145.72 275.972L158.5 291.314V328H413.5V182.042L304.228 291.314C297.199 298.343 285.802 298.343 278.772 291.314L189.208 201.75H101.413C96.6487 201.75 92.0784 199.861 88.7043 196.497L5.45029 113.488C-5.17407 102.894 1.06284 84.716 15.9527 82.8766L85.9206 74.2336L93.893 15.6359ZM94.8477 107.389L52.709 112.595L108.027 167.75H155.208L94.8477 107.389ZM172.373 136.832L165.992 91.2681L123.386 51.0626L118.981 83.4396L172.373 136.832Z"
        fill="#007AFF" />
</svg>