<svg width="93" height="95" viewBox="0 0 93 95" fill="none" xmlns="http://www.w3.org/2000/svg">
<path d="M89.7832 91.8345H3.07812V3.64734H89.7832V40.7008" stroke="#0F172A" stroke-width="6" stroke-linecap="round" stroke-linejoin="round"/>
<path d="M46.6853 71.8622C60.0071 71.8622 70.8066 61.0628 70.8066 47.7409C70.8066 34.4191 60.0071 23.6196 46.6853 23.6196C33.3635 23.6196 22.564 34.4191 22.564 47.7409C22.564 61.0628 33.3635 71.8622 46.6853 71.8622Z" stroke="#0F172A" stroke-width="6.03033" stroke-linecap="round" stroke-linejoin="round"/>
<path d="M46.6855 17.5892V40.203" stroke="#0F172A" stroke-width="6.03033" stroke-linecap="round" stroke-linejoin="round"/>
<path d="M67.7915 26.6347L52.0222 42.4041" stroke="#0F172A" stroke-width="6.03033" stroke-linecap="round" stroke-linejoin="round"/>
<path d="M76.8371 47.7409H54.2234" stroke="#0F172A" stroke-width="6.03033" stroke-linecap="round" stroke-linejoin="round"/>
<path d="M67.7915 68.8471L52.0222 53.0778" stroke="#0F172A" stroke-width="6.03033" stroke-linecap="round" stroke-linejoin="round"/>
<path d="M46.6855 55.2788V77.8926" stroke="#0F172A" stroke-width="6.03033" stroke-linecap="round" stroke-linejoin="round"/>
<path d="M41.3484 53.0778L25.5791 68.8471" stroke="#0F172A" stroke-width="6.03033" stroke-linecap="round" stroke-linejoin="round"/>
<path d="M39.1477 47.7409H16.5339" stroke="#0F172A" stroke-width="6.03033" stroke-linecap="round" stroke-linejoin="round"/>
<path d="M41.3484 42.4041L25.5791 26.6347" stroke="#0F172A" stroke-width="6.03033" stroke-linecap="round" stroke-linejoin="round"/>
<path d="M46.6854 55.2788C50.8485 55.2788 54.2233 51.904 54.2233 47.7409C54.2233 43.5778 50.8485 40.203 46.6854 40.203C42.5223 40.203 39.1475 43.5778 39.1475 47.7409C39.1475 51.904 42.5223 55.2788 46.6854 55.2788Z" stroke="#0F172A" stroke-width="6.03033" stroke-linecap="round" stroke-linejoin="round"/>
</svg>
