<svg xmlns="http://www.w3.org/2000/svg" xmlns:xlink="http://www.w3.org/1999/xlink" id="Camada_1" x="0px" y="0px" viewBox="0 0 1310 424" style="enable-background:new 0 0 1310 424;" xml:space="preserve"><path d="M153.5,0.1c-0.7,0-3.1,0.1-5.4,0.2c-23.2,1-45,4.6-62.1,10.4C55.4,21.1,35.2,38.6,25.4,63.3C22,71.7,20,80.5,19.1,91.2 c-0.4,4.5-0.4,16.3,0,20.8c1,10.5,3,19.2,6.3,27.5c10.3,25.7,32.1,44.2,71,60.4c13.3,5.5,29.8,11.3,51.3,17.9 c11.2,3.4,16.8,5.1,30.9,9c32.3,9.1,45.3,13.2,59.5,19c32.4,13.2,50.3,29.7,56.4,52c0.9,3.2,1.7,8.1,2,11.8c0.2,2.6,0.2,10,0,12.7 c-1.7,19.7-9.9,33.7-25.7,43.6c-2.9,1.8-8.7,4.7-12.5,6.2c-8.9,3.5-18.9,6-31.1,7.7c-19.7,2.8-48.5,3.3-72.9,1.2 c-31.3-2.6-53.9-9.9-70.5-22.6c-3.8-2.9-8.6-7.4-11.7-11c-9.6-10.7-16.1-24.4-20-41.3c-2.6-11.4-4.2-25.4-4.2-38.9v-3.9h-24H0v3.6 c0,4.1,0.2,9.6,0.6,15.2c3.1,47.2,18.2,81,46.5,104.2c26.4,21.6,65.5,33.7,117,36.3c13.1,0.7,31,0.7,43.5,0 c26.4-1.4,49.4-5.5,68-12.2c14.6-5.2,26.3-11.7,36.5-20.2c2.7-2.2,8.6-8.1,10.8-10.8c13.2-15.9,20-34.9,21.3-59.3 c0.2-4,0.1-12.5-0.2-15.7c-1.4-15.7-5.7-28.8-13.3-41.1c-6.3-10.2-15.5-19.9-26.7-28.4c-19.8-14.9-47-27.4-88.8-40.7 c-9.1-2.9-11.3-3.6-22.2-6.9c-26-8-28.5-8.8-39.6-12.4c-28.7-9.3-46.8-17.2-59.5-25.7c-12.2-8.2-19.9-17.3-24-28.3 c-2.5-6.9-3.7-15.3-3.3-23.7C67.2,84.4,71,74.5,78.3,66c11.5-13.3,32-21.3,61.2-24c11.8-1.1,26-1.4,35.7-0.8 c26.1,1.6,47.6,8.1,64.8,19.5c5.1,3.4,9,6.6,13.5,11.1c8.8,8.8,14.8,18.1,19.4,30.1c4.1,10.8,6.6,24.9,6.7,37.2v2.2h24h24l-0.1-3.7 c-0.4-13.2-2-24.6-5.1-36.2c-3.1-11.4-7.5-22.3-12.8-31.7c-5.9-10.3-12-18.3-20.2-26.5c-5-5-8.1-7.7-13.4-11.7 C262.2,21.2,246,13.4,227.3,8c-14.1-4.1-29.6-6.5-47.8-7.7C176.9,0.2,156.2,0,153.5,0.1z"></path><path d="M1116.8,0.2c-16.8,0.6-33.3,2.6-46.8,5.5c-31.5,7-54,19.6-68.3,38.5c-10.1,13.3-15.6,29-17.2,48.7c-0.3,3.4-0.3,14,0,17.4 c1,12.6,3.5,22.9,7.9,32.6c10.9,24,32.6,41.7,70,57.2c14.6,6,31,11.7,58.1,20c4,1.2,14.9,4.4,24.1,7c13.4,3.8,15.5,4.4,24.7,7.1 c35.9,10.7,57.5,20.8,71.8,33.9c12.3,11.2,18.9,24.1,20.7,40.3c0.3,3.1,0.4,11.2,0.1,14.5c-0.6,6.8-1.9,12.4-3.9,17.7 c-8.6,21.9-30.2,34.7-67.1,39.7c-19.2,2.6-46.8,3-70.4,1.1c-28.9-2.3-50.8-8.7-67.1-19.6c-6.8-4.6-13.3-10.6-18.4-17.1 c-11.1-14.3-17.9-33.5-20.4-57.7c-0.7-6.9-1.1-14.6-1.1-20.3v-3.1h-24h-24l0.1,4.9c0.3,11.2,0.7,18.4,1.8,27.3 c3.2,26.6,10.6,48.1,22.5,66c18.9,28.3,49.8,46.8,92.9,55.6c15.3,3.1,30.8,4.9,50.7,5.9c5.8,0.3,30.1,0.3,35.9,0 c18.8-0.9,33.7-2.7,48.1-5.8c39-8.3,65.8-25.2,80.1-50.7c7.7-13.7,11.7-29.4,12.3-48.6c0.6-17.8-2.5-33.2-9.5-47.2 c-4.4-8.8-10.2-16.7-17.8-24.3c-14-14-32.4-25.4-59-36.6c-14.4-6.1-31.7-12.1-58.4-20.3c-2.5-0.8-5.6-1.7-6.8-2.1 c-1.2-0.4-3-0.9-4-1.2c-0.9-0.3-3-0.9-4.5-1.4c-1.6-0.5-5.4-1.7-8.4-2.6c-37.3-11.5-57.4-19-72.6-27.2 c-17.2-9.3-27.8-19.9-32.9-32.9c-4.6-11.7-5-27.9-1-40.1c4.2-12.7,12.8-22.2,26.3-29c11.7-5.8,26.9-9.6,45.7-11.1 c6.3-0.5,8.6-0.6,16.1-0.9c22-0.6,41,1.9,57.7,7.6c25.6,8.7,44.4,24.6,54.7,46c6.1,12.8,9.2,26.3,9.8,43.6l0.1,3.1h23.9h23.9 l-0.1-4.4c-0.3-15.2-2.9-30-7.7-44.1c-11.2-33.4-33.9-59-66.1-74.6c-21.9-10.7-47.7-16.6-77.9-17.8C1136.8,0,1122.2,0,1116.8,0.2z"></path><path d="M593,14.2c-4.4,6.8-22.5,34.7-25.2,38.8c-0.4,0.6-4.8,7.5-9.9,15.3c-5.1,7.8-9.5,14.7-9.9,15.3c-0.4,0.6-5,7.7-10.2,15.8 s-10.2,15.6-10.9,16.8c-0.8,1.2-5.5,8.5-10.5,16.2c-5.1,7.8-9.7,14.9-10.3,15.8c-0.6,0.9-5.4,8.3-10.7,16.4 c-5.2,8.1-9.8,15.2-10.2,15.8c-0.4,0.6-4.7,7.2-9.5,14.7c-16.2,24.9-30.5,46.9-32.4,50c-1.1,1.7-5.7,8.7-10.2,15.8 c-4.5,7-8.9,13.7-9.6,14.9c-0.7,1.2-5.6,8.6-10.8,16.6c-5.2,7.9-13.8,21.3-19.2,29.6c-5.4,8.4-14.5,22.3-20.1,31 c-5.7,8.7-14.8,22.8-20.3,31.3s-12.2,18.8-14.9,22.9c-2.7,4.1-5.3,8.1-5.8,8.9l-0.9,1.4h28.4H388l6.6-10.2 c3.6-5.6,7.1-10.9,7.6-11.7c0.6-0.8,5.2-7.9,10.2-15.8c5.1-7.8,9.7-15,10.4-16c0.6-1,1.6-2.5,2.2-3.3c1.5-2.3,17-26.1,19.2-29.6 c1.1-1.7,5.7-8.7,10.2-15.8c4.5-7,8.9-13.7,9.6-14.9c0.8-1.2,5.7-8.7,10.9-16.8c5.2-8.1,9.8-15.2,10.2-15.8c0.7-1,8.2-12.6,29.2-45 c5.9-9.2,11.4-17.6,12.2-18.8c0.7-1.2,5.6-8.6,10.8-16.6s13.9-21.4,19.4-29.9c13.5-20.8,37.9-58.4,59.5-91.7 c5.1-7.8,9.6-14.8,10.1-15.5s5-7.7,10.1-15.5s9.9-15.3,10.8-16.6c0.9-1.3,3-4.5,4.6-7.2c1.7-2.6,3.1-4.8,3.2-4.8 c0.1,0,0.1,92.5,0.1,205.7v205.7H679h23.9v-87.5c0-57,0-87.5,0.1-87.4c0.1,0,2.9,2.4,6.4,5.2c3.4,2.8,9.1,7.5,12.7,10.5 c3.6,3,11.1,9.2,16.7,13.8c5.6,4.6,12.1,9.9,14.3,11.8c4,3.3,20,16.4,45.2,37.3c7.3,6,15.4,12.7,18,14.9c2.7,2.2,10.8,8.9,18,14.9 c7.3,6,16.1,13.3,19.7,16.2c3.6,2.9,12.6,10.4,20,16.5s19.3,15.9,26.4,21.8c7.1,5.8,13.3,11,13.8,11.4l0.9,0.8h34.4h34.4l-5-4.1 c-2.7-2.3-8.7-7.1-13.3-10.9c-4.5-3.8-10.9-9-14.2-11.7s-8.3-6.8-11.3-9.3c-2.9-2.4-11.3-9.3-18.5-15.2 c-7.2-5.9-15.6-12.8-18.6-15.3c-15.2-12.5-19.8-16.3-26.4-21.7c-3.9-3.2-9.6-7.9-12.7-10.4c-3-2.5-7.9-6.5-10.9-8.9 c-2.9-2.4-8.8-7.2-13.1-10.7c-4.2-3.5-10.2-8.4-13.2-10.8c-3-2.5-8-6.5-11-9s-10.4-8.5-16.4-13.4s-13.7-11.3-17.2-14.1 c-9.5-7.8-17.3-14.2-24-19.7c-3.3-2.7-8.6-7.1-11.9-9.7c-3.3-2.7-7.6-6.2-9.6-7.9s-3.7-3.1-3.7-3.1s8.6-7.2,19.2-15.8 c10.6-8.7,28.9-23.7,40.7-33.3c11.8-9.7,22.9-18.7,24.5-20.1c1.7-1.3,8.4-6.9,15.1-12.4c6.7-5.5,25-20.5,40.9-33.4 c37.7-30.9,54.4-44.6,80.6-66c11.9-9.7,23.4-19.2,25.7-21l4.1-3.3h-34.4h-34.4L914,7.2c-0.5,0.4-6.7,5.6-13.8,11.4 s-19,15.6-26.4,21.8c-7.4,6.1-16.4,13.5-20,16.5c-3.6,2.9-12.4,10.3-19.7,16.2c-7.3,6-15.4,12.7-18,14.9c-2.7,2.2-10.8,8.9-18,14.9 c-16.9,13.9-40,32.9-45.2,37.3c-15.1,12.4-45,37.1-48.3,39.8c-0.9,0.8-1.8,1.4-1.8,1.4c-0.1,0-0.1-39.4-0.1-87.5V6.4h-52.4h-52.4 L593,14.2z"></path><path d="M608.2,219.8c-0.5,0.1-1.2,0.4-1.4,0.5c-0.5,0.2-2.9,2.2-5.7,4.6c-0.5,0.4-1.1,0.9-1.3,1.1c-0.2,0.2-0.5,0.4-0.5,0.4 c-0.1,0.1-0.8,0.7-2.4,2c-0.2,0.2-0.9,0.7-1.5,1.2c-1.2,1-7.1,6-8.3,7c-0.4,0.3-0.9,0.7-1.1,0.9c-0.2,0.2-0.7,0.6-1.1,0.9 c-0.4,0.3-0.8,0.6-0.8,0.7c0,0-0.6,0.5-1.1,1c-0.6,0.5-1.1,1-1.2,1.1c-0.1,0.1-0.5,0.4-0.9,0.7s-2.9,2.4-5.5,4.6 c-2.6,2.2-5.1,4.3-5.5,4.6c-2.9,2.4-5.2,4.4-5.9,5s-4.1,3.5-6.2,5.2c-0.4,0.3-1.3,1.1-2,1.7c-2,1.7-2.1,1.8-3,2.5 c-0.5,0.4-1,0.8-1.1,0.9s-0.4,0.4-0.7,0.6s-0.7,0.6-0.9,0.7c-0.5,0.4-1.8,1.6-5.3,4.5c-3.8,3.2-3.7,3.1-4,3.3 c-0.1,0.1-0.6,0.5-1.2,0.9c-0.5,0.4-1,0.8-1.1,0.9s-1.7,1.5-2.3,1.9c-0.1,0.1-2.2,1.9-4.6,3.9c-2.4,2-4.7,4-5.1,4.3 c-0.4,0.3-0.9,0.7-1.1,0.9c-0.2,0.2-0.5,0.4-0.7,0.6s-0.8,0.7-1.3,1.1c-0.5,0.5-1.1,1-1.4,1.2c-2.3,1.9-3.3,4.4-2.7,6.8 c0.1,0.4,0.2,0.8,0.1,0.8c0,0,0.1,0.3,0.3,0.8c0.6,1.1,1.6,2.3,2.5,2.7c1.7,0.9,0.2,0.8,27.8,0.9l25.7,0.1l1.3,0.5 c1.5,0.6,2.1,1.1,3.5,2.5c0.7,0.7,1.3,1.5,1.7,2.3c0.5,1,3.1,7.4,5.6,13.9c0.3,0.8,0.7,1.7,0.8,1.9c0.1,0.3,0.3,0.5,0.2,0.6 c0,0,0,0.2,0.1,0.4c0.4,0.9,1.5,3.9,3.7,9.2c1.3,3.3,2.4,6.1,2.4,6.2s0.1,0.3,0.2,0.5c0.1,0.2,0.7,1.8,1.4,3.5s1.3,3.3,1.4,3.5 c0.1,0.2,0.5,1.2,0.9,2.3c0.4,1.1,0.8,2.1,0.9,2.4c0.1,0.2,0.2,0.4,0.2,0.5s0.1,0.3,0.2,0.5c0.3,0.5,1.1,2.5,1.1,2.6 c0,0,0.1,0.4,0.3,0.8s0.3,0.8,0.3,0.9s0.1,0.3,0.2,0.4c0.1,0.2,0.2,0.4,0.2,0.5s0.3,0.9,0.6,1.7c1.5,3.8,2.1,4.6,4.1,5.6 c1.8,0.8,4,0.8,5.8-0.1c1-0.5,2.1-1.7,2.7-2.8l0.6-1.1v-68.6c0-45.4,0-68.9-0.1-69.4c-0.5-2.3-2.1-4-4.4-4.6 C610.4,219.5,609.3,219.5,608.2,219.8z"></path></svg>