<svg width="300" height="300" viewBox="0 0 300 300" fill="none" xmlns="http://www.w3.org/2000/svg">
    <rect width="300" height="300" rx="80" fill="black" fill-opacity="0.9" />
    <path
        d="M195.537 142.988C194.71 142.592 193.87 142.21 193.019 141.845C191.537 114.538 176.616 98.905 151.562 98.745C151.448 98.7443 151.336 98.7443 151.222 98.7443C136.236 98.7443 123.773 105.141 116.102 116.781L129.881 126.233C135.612 117.538 144.605 115.685 151.229 115.685C151.305 115.685 151.382 115.685 151.458 115.686C159.707 115.738 165.932 118.137 169.961 122.814C172.893 126.219 174.854 130.925 175.825 136.864C168.511 135.621 160.601 135.238 152.145 135.723C128.325 137.095 113.011 150.988 114.04 170.292C114.562 180.084 119.44 188.508 127.775 194.011C134.822 198.663 143.899 200.938 153.332 200.423C165.79 199.74 175.563 194.987 182.381 186.296C187.559 179.696 190.834 171.143 192.28 160.366C198.217 163.949 202.617 168.664 205.047 174.332C209.179 183.967 209.42 199.8 196.501 212.708C185.182 224.016 171.576 228.908 151.013 229.059C128.204 228.89 110.954 221.575 99.7381 207.317C89.2355 193.966 83.8077 174.682 83.6052 150C83.8077 125.318 89.2355 106.034 99.7381 92.6827C110.954 78.4249 128.204 71.11 151.013 70.9405C173.988 71.1113 191.539 78.4614 203.184 92.788C208.894 99.8136 213.199 108.649 216.037 118.95L232.184 114.642C228.744 101.962 223.331 91.0357 215.965 81.974C201.036 63.6067 179.202 54.1951 151.07 54H150.957C122.882 54.1945 101.292 63.6418 86.7883 82.0793C73.8819 98.4864 67.2244 121.316 67.0007 149.933L67 150L67.0007 150.067C67.2244 178.684 73.8819 201.514 86.7883 217.921C101.292 236.358 122.882 245.806 150.957 246H151.07C176.03 245.827 193.624 239.292 208.118 224.811C227.081 205.866 226.51 182.119 220.26 167.541C215.776 157.087 207.227 148.596 195.537 142.988ZM152.44 183.507C142 184.095 131.154 179.409 130.62 169.372C130.223 161.93 135.916 153.626 153.081 152.637C155.047 152.523 156.976 152.468 158.871 152.468C165.106 152.468 170.939 153.074 176.242 154.233C174.264 178.935 162.662 182.946 152.44 183.507Z"
        fill="white" />
</svg>
    