<svg width="36" height="42" viewBox="0 0 36 42" fill="none" xmlns="http://www.w3.org/2000/svg">
    <g filter="url(#filter0_dd_612_28)">
        <g clip-path="url(#clip0_612_28)">
            <path
                d="M28.6769 21.5652H23.9881C23.5618 21.5652 23.2208 21.9728 23.2208 22.2989V26.2935C23.2208 26.7011 22.7945 27.0272 22.4535 27.0272H15.1219C14.4399 27.0272 14.0989 26.2935 14.5251 25.8044L29.1884 8.03261C29.2737 7.95109 29.3589 7.70652 29.3589 7.54348V2.7337C29.4442 2.40761 29.0179 2 28.5916 2H6.76726C6.42626 2 6 2.40761 6 2.7337V11.2935C6 11.7011 6.42626 12.0272 6.76726 12.0272H11.4561C11.8824 12.0272 12.2234 11.6196 12.2234 11.2935V7.70652C12.2234 7.29891 12.6496 6.97283 12.9906 6.97283H20.1517C20.8338 6.97283 21.1748 7.70652 20.7485 8.19565L6.1705 25.8859C6.08525 25.9674 6 26.212 6 26.375V31.2663C6 31.6739 6.42626 32 6.76726 32H28.6769C29.1032 32 29.4442 31.5924 29.4442 31.2663V22.2989C29.6147 21.8098 29.1884 21.5652 28.6769 21.5652ZM20.3223 10.1522L17.9352 15.2065L21.942 15.6141L16.5712 22.0543L19.2992 16.837L15.2924 16.2663L20.3223 10.1522Z"
                fill="#9333EA" />
        </g>
    </g>
    <defs>
        <filter id="filter0_dd_612_28" x="0" y="0" width="35.5294" height="42"
            filterUnits="userSpaceOnUse" color-interpolation-filters="sRGB">
            <feFlood flood-opacity="0" result="BackgroundImageFix" />
            <feColorMatrix in="SourceAlpha" type="matrix"
                values="0 0 0 0 0 0 0 0 0 0 0 0 0 0 0 0 0 0 127 0" result="hardAlpha" />
            <feOffset dy="4" />
            <feGaussianBlur stdDeviation="3" />
            <feColorMatrix type="matrix" values="0 0 0 0 0 0 0 0 0 0 0 0 0 0 0 0 0 0 0.1 0" />
            <feBlend mode="normal" in2="BackgroundImageFix" result="effect1_dropShadow_612_28" />
            <feColorMatrix in="SourceAlpha" type="matrix"
                values="0 0 0 0 0 0 0 0 0 0 0 0 0 0 0 0 0 0 127 0" result="hardAlpha" />
            <feOffset dy="2" />
            <feGaussianBlur stdDeviation="2" />
            <feColorMatrix type="matrix" values="0 0 0 0 0 0 0 0 0 0 0 0 0 0 0 0 0 0 0.06 0" />
            <feBlend mode="normal" in2="effect1_dropShadow_612_28"
                result="effect2_dropShadow_612_28" />
            <feBlend mode="normal" in="SourceGraphic" in2="effect2_dropShadow_612_28" result="shape" />
        </filter>
        <clipPath id="clip0_612_28">
            <rect width="23.5294" height="30" fill="white" transform="translate(6 2)" />
        </clipPath>
    </defs>
</svg>
    